<svg xmlns="http://www.w3.org/2000/svg" xmlns:svg="http://www.w3.org/2000/svg" id="svg4243" width="3188.976" height="3188.976" version="1.1"><metadata id="metadata4249"/><g id="layer1" transform="translate(0,2444.8818)"><path id="path4816" fill="#293d3d" fill-opacity="1" stroke="#000" stroke-dasharray="none" stroke-linecap="butt" stroke-linejoin="miter" stroke-miterlimit="4" stroke-opacity="1" stroke-width="40.493" d="m 2244.967,381.95263 c 22.9825,-42.9931 63.4704,-76.2918 110.0913,-90.54304 30.8143,-9.41943 64.0833,-10.67849 95.5214,-3.61498 l 302.5106,-1548.64071 -2068.54472,-18.1306 c 1.36524,61.4541 -15.66831,123.2006 -48.34845,175.2629 -37.59252,59.8881 -95.85282,106.52773 -162.51677,130.101 l 1935.39994,8.90061 z"/><path id="path4820" fill="none" stroke="#000" stroke-dasharray="none" stroke-linecap="butt" stroke-linejoin="miter" stroke-miterlimit="4" stroke-opacity="1" stroke-width="35.432" d="m 2409.2033,-972.278 c 76.6423,-10.09152 149.9728,-44.0348 207.2616,-95.9374 56.0146,-50.7483 96.479,-118.4342 114.6624,-191.799"/><path id="path4301" fill="#699" fill-opacity="1" stroke="#000" stroke-dasharray="none" stroke-linecap="butt" stroke-linejoin="miter" stroke-miterlimit="4" stroke-opacity="1" stroke-width="40.493" d="m 1853.0625,-1143.9364 c 21.0996,-42.8078 49.7582,-81.8767 84.2533,-114.8583 69.5438,-66.4925 159.65,-106.1091 245.1858,-150.1684 92.9313,-47.8687 184.0655,-102.965 285.8876,-126.627 41.7162,-9.6942 84.7006,-13.9163 127.5057,-12.524 54.2261,4.2953 107.2523,22.9263 152.2478,53.493 55.1444,37.4611 97.0075,91.42 132.7074,147.7206 43.1325,68.0222 78.7037,140.8714 105.3074,216.8956 15.7355,44.9666 28.4622,92.2083 24.6839,139.69865 -1.8891,23.74516 -7.9932,47.30748 -19.3092,68.26811 -11.3161,20.96064 -27.9754,39.24273 -48.6269,51.11357 -31.8929,18.3326 -71.553,20.22719 -106.9725,10.29239 -35.4195,-9.93481 -66.9636,-30.81336 -94.2815,-55.45019 -29.6442,-26.73485 -54.8328,-57.98502 -82.8879,-86.38293 -28.0552,-28.3979 -59.9201,-54.4711 -97.7047,-67.3495 -30.2292,-10.3032 -63.1713,-11.6377 -94.597,-5.9466 -31.4257,5.691 -61.3826,18.2424 -88.6966,34.7926 -49.5876,30.0462 -91.8925,75.37473 -108.439,130.94378 -11.6184,39.01872 -10.0754,80.87268 -3.3199,121.02004 6.7555,40.14736 18.5595,79.25477 27.331,119.01037 6.4746,29.34501 11.3145,59.42238 8.8364,89.37081 -2.4782,29.94843 -12.8482,60.01567 -33.4802,81.86445 -17.0753,18.08227 -40.4983,29.67804 -64.9915,33.9926 -24.4933,4.31456 -49.9755,1.56365 -73.593,-6.23042 -47.235,-15.58812 -85.826,-50.25612 -118.0758,-88.12542 -65.4809,-76.89083 -110.1066,-169.35806 -146.2037,-263.68164 -27.7688,-72.56108 -51.2266,-149.74182 -41.9108,-226.87437 3.9646,-32.8259 13.8888,-64.9228 29.1439,-94.2578 z"/><path id="path4824" fill="none" stroke="#000" stroke-dasharray="none" stroke-linecap="butt" stroke-linejoin="miter" stroke-miterlimit="4" stroke-opacity="1" stroke-width="75.925" d="m 2071.8952,-1184.3958 99.8566,186.47012"/><path id="path4828" fill="none" stroke="#000" stroke-dasharray="none" stroke-linecap="butt" stroke-linejoin="miter" stroke-miterlimit="4" stroke-opacity="1" stroke-width="75.925" d="m 2031.8214,-1044.1258 182.6263,-94.9309"/><circle id="path4834" cx="2878.935" cy="-19.402" r="17.12" fill="none" stroke="#000" stroke-dasharray="none" stroke-linecap="butt" stroke-linejoin="round" stroke-miterlimit="4" stroke-opacity="1" stroke-width="53.771" transform="rotate(-28.169479)"/><circle id="path4836" cx="2901.806" cy="146.327" r="17.12" fill="none" stroke="#000" stroke-dasharray="none" stroke-linecap="butt" stroke-linejoin="round" stroke-miterlimit="4" stroke-opacity="1" stroke-width="53.771" transform="rotate(-28.169479)"/><circle id="path4838" cx="2804.968" cy="74.447" r="17.12" fill="none" stroke="#000" stroke-dasharray="none" stroke-linecap="butt" stroke-linejoin="round" stroke-miterlimit="4" stroke-opacity="1" stroke-width="53.771" transform="rotate(-28.169479)"/><circle id="path4840" cx="2978.882" cy="63.726" r="17.12" fill="none" stroke="#000" stroke-dasharray="none" stroke-linecap="butt" stroke-linejoin="round" stroke-miterlimit="4" stroke-opacity="1" stroke-width="53.771" transform="rotate(-28.169479)"/><rect stroke-linejoin="miter" style="marker:none" id="rect4935" width="543.388" height="1003.533" x="1547.712" y="-1042.214" fill="#000" fill-opacity="1" fill-rule="evenodd" stroke="#000" stroke-dasharray="none" stroke-dashoffset="0" stroke-linecap="butt" stroke-miterlimit="4" stroke-opacity="1" stroke-width="1.418" color="#000" display="inline" enable-background="accumulate" overflow="visible" ry="76.222" transform="rotate(-24.079392)" visibility="visible"/><rect stroke-linejoin="miter" style="marker:none" id="rect4937" width="508.166" height="932.958" x="1565.323" y="-1004.761" fill="#699" fill-opacity="1" fill-rule="evenodd" stroke="#000" stroke-dasharray="none" stroke-dashoffset="0" stroke-linecap="butt" stroke-miterlimit="4" stroke-opacity="1" stroke-width="1.322" color="#000" display="inline" enable-background="accumulate" overflow="visible" ry="45.351" transform="rotate(-24.079392)" visibility="visible"/><path id="rect4945" fill="#000" fill-opacity="1" fill-rule="evenodd" stroke="#000" stroke-dashoffset="0" stroke-linecap="butt" stroke-linejoin="miter" stroke-miterlimit="4" stroke-opacity="1" stroke-width="1.821" d="m 1158.0817,-1641.8194 171.9594,-76.8469 2.9974,62.727 -132.8333,59.3618 z" color="#000" display="inline" enable-background="accumulate" overflow="visible" visibility="visible" style="marker:none"/><ellipse id="path4943" cx="1820.431" cy="-1004.352" fill="#b7c4c8" fill-opacity="1" fill-rule="evenodd" stroke="#000" stroke-dasharray="none" stroke-linecap="butt" stroke-linejoin="round" stroke-miterlimit="4" stroke-opacity="1" stroke-width="3.74" rx="15.851" ry="17.652" transform="rotate(-24.079392)"/><rect stroke-linejoin="miter" style="marker:none" id="rect4867" width="789.212" height="704.101" x="-496.019" y="1060.191" fill="#3d5c5c" fill-opacity="1" fill-rule="evenodd" stroke="#000" stroke-dasharray="none" stroke-dashoffset="0" stroke-linecap="butt" stroke-miterlimit="4" stroke-opacity="1" stroke-width="38.536" color="#000" display="inline" enable-background="accumulate" overflow="visible" ry="77.374" transform="rotate(-141.40865)" visibility="visible"/><path id="path4869" fill="#3d5c5c" fill-opacity="1" stroke="#000" stroke-dasharray="none" stroke-linecap="butt" stroke-linejoin="miter" stroke-miterlimit="4" stroke-opacity="1" stroke-width="38.536" d="m 527.98324,-1230.4174 171.85156,-215.3417 -75.81029,-277.2226 -390.53556,494.4279 z"/><path id="path4873" fill="#fff" stroke="#000" stroke-dasharray="none" stroke-linecap="butt" stroke-linejoin="miter" stroke-miterlimit="4" stroke-opacity="1" stroke-width="27.526" d="m 956.99205,-879.65711 157.69475,-197.60179 -281.24073,-69.3354 z"/><path id="path4907" fill="#3d5c5c" fill-opacity="1" stroke="#000" stroke-dasharray="none" stroke-linecap="butt" stroke-linejoin="miter" stroke-miterlimit="4" stroke-opacity="1" stroke-width="15.185" d="m 1545.8978,-573.0693 435.8903,-1230.749 94.0155,34.1874 -435.8902,1230.74923 z"/><path id="path4911" fill="#b7c4c8" fill-opacity="1" stroke="#000" stroke-dasharray="none" stroke-linecap="butt" stroke-linejoin="miter" stroke-miterlimit="4" stroke-opacity="1" stroke-width="15.185" d="m 2004.0409,-1780.6436 c -5.0027,-3.1861 -9.8508,-6.6663 -14.0832,-10.8215 -4.2323,-4.1552 -7.8471,-9.0157 -10.0909,-14.5061 -2.9746,-7.2785 -3.4284,-15.4329 -2.1462,-23.1906 1.2821,-7.7576 4.2353,-15.1585 7.8602,-22.136 7.0257,-13.5238 16.6088,-25.6274 27.5255,-36.2612 10.7867,-10.5072 22.8746,-19.6167 33.569,-30.2178 10.1351,-10.0467 18.9477,-21.3673 26.8666,-33.2394 11.9828,-17.9648 21.9714,-37.2587 29.7235,-57.4138 5.0192,27.0601 9.2156,54.2728 12.5813,81.5879 2.7178,22.057 4.8962,44.3345 3.0218,66.4791 -1.4934,17.6444 -5.5709,35.0699 -12.0871,51.5348 -3.1046,7.8447 -6.7858,15.5159 -11.7218,22.3579 -4.9361,6.842 -11.1838,12.8524 -18.6608,16.7605 -11.9041,6.222 -26.1941,6.6982 -39.2829,3.6808 -11.8026,-2.7209 -22.8588,-8.1082 -33.075,-14.6146 z"/><path id="path4927" fill="#3d5c5c" fill-opacity="1" stroke="#000" stroke-dasharray="none" stroke-linecap="butt" stroke-linejoin="miter" stroke-miterlimit="4" stroke-opacity="1" stroke-width="15.185" d="m 1526.937,-618.94973 172.9815,-1294.14877 69.4765,-115.5884 29.5652,129.6735 -172.9813,1294.14866 z"/><path id="path4931" fill="#b7c4c8" fill-opacity="1" stroke="#000" stroke-dasharray="none" stroke-linecap="butt" stroke-linejoin="miter" stroke-miterlimit="4" stroke-opacity="1" stroke-width="5.062" d="m 1767.048,-2008.4573 -8.6141,-3.8424 -60.1331,101.8317 32.2611,-9.6394 20.1127,18.5343 20.8331,-15.4912 28.6594,19.2305 -23.6257,-112.1093 z"/><path id="rect4305" fill="#699" fill-opacity="1" fill-rule="evenodd" stroke="#000" stroke-dasharray="none" stroke-dashoffset="0" stroke-linecap="butt" stroke-linejoin="miter" stroke-miterlimit="4" stroke-opacity="1" stroke-width="55.678" d="M 486.15795,-963.73109 H 2417.7502 l -176.07,1358.05203 -1556.4965,-3.99997 z" color="#000" display="inline" enable-background="accumulate" overflow="visible" visibility="visible" style="marker:none"/></g></svg>