<svg xmlns="http://www.w3.org/2000/svg" xmlns:svg="http://www.w3.org/2000/svg" id="svg8" width="500" height="500" version="1.1" viewBox="0 0 132.292 132.292"><metadata id="metadata5"/><g id="layer1" transform="translate(0,-164.70832)"><rect id="rect838" width="96.384" height="43.308" x="16.631" y="186.034" fill="#293d3d" fill-opacity="1" fill-rule="nonzero" stroke="#000" stroke-dasharray="none" stroke-dashoffset="0" stroke-miterlimit="4" stroke-opacity="1" stroke-width="2.646" opacity="1" ry="5.566"/><rect id="rect840" width="78.344" height="35.547" x="21.54" y="189.915" fill="#fff" fill-opacity="1" fill-rule="nonzero" stroke="#000" stroke-dasharray="none" stroke-dashoffset="0" stroke-miterlimit="4" stroke-opacity="1" stroke-width="1.323" opacity="1" ry="4.568"/><circle id="path842" cx="105.833" cy="207.688" r="3.402" fill="#fff" fill-opacity="1" fill-rule="nonzero" stroke="#000" stroke-dasharray="none" stroke-dashoffset="0" stroke-miterlimit="4" stroke-opacity="1" stroke-width="1.323" opacity="1"/><path id="rect815" fill="#699" fill-opacity="1" fill-rule="nonzero" stroke="#000" stroke-dasharray="none" stroke-dashoffset="0" stroke-miterlimit="4" stroke-opacity="1" stroke-width="2.646" d="m 11.272475,217.62513 c -3.9415722,0 -7.1148108,3.17325 -7.1148108,7.11482 v 42.0889 c 0,3.94157 3.1734273,7.15339 7.1148108,7.11481 l 38.620382,-0.37797 c 0,0 2.987428,-0.25384 4.098678,-1.13393 0.957316,-0.75818 1.759728,-2.11848 1.759728,-3.21324 0,-15.55191 2.417035,-28.53713 9.827678,-28.53713 7.410643,0 9.54368,13.08008 9.54368,28.63199 0,0.70608 0.08729,2.34401 0.834411,3.11838 0.895974,0.92865 3.701449,1.13393 3.701449,1.13393 l 40.604759,0.37797 c 3.9414,0.0367 7.11481,-3.17324 7.11481,-7.11481 v -42.0889 c 0,-3.94157 -3.17324,-7.11482 -7.11481,-7.11482 z" opacity="1"/><circle id="path823" cx="30.238" cy="240.493" r="15.497" fill="#fff" fill-opacity="1" fill-rule="nonzero" stroke="#000" stroke-dasharray="none" stroke-dashoffset="0" stroke-miterlimit="4" stroke-opacity="1" stroke-width="2.646" opacity="1"/><path id="rect2203" fill="#000" fill-opacity="1" fill-rule="nonzero" stroke="#000" stroke-dasharray="none" stroke-dashoffset="0" stroke-miterlimit="4" stroke-opacity="1" stroke-width="5" d="M 250 200 L 250 287.25 C 276.27737 289.72843 283.92773 338.10742 283.92773 395.35742 C 283.92773 398.02607 284.25827 404.21778 287.08203 407.14453 C 290.46839 410.65439 301.07227 411.42969 301.07227 411.42969 L 454.53906 412.85742 C 469.43569 412.99613 481.42969 400.86407 481.42969 385.9668 L 481.42969 226.89062 C 481.42969 211.99335 469.43633 200 454.53906 200 L 250 200 z" opacity=".362" transform="matrix(0.26458333,0,0,0.26458333,0,164.70832)"/><circle id="circle825" cx="99.03" cy="239.737" r="15.497" fill="#fff" fill-opacity="1" fill-rule="nonzero" stroke="#000" stroke-dasharray="none" stroke-dashoffset="0" stroke-miterlimit="4" stroke-opacity="1" stroke-width="2.646" opacity="1"/></g></svg>