<svg xmlns="http://www.w3.org/2000/svg" xmlns:svg="http://www.w3.org/2000/svg" id="svg2" width="900" height="900" version="1.1"><metadata id="metadata7"/><g id="layer1" transform="translate(0,-152.36218)"><rect id="rect2991" width="110.781" height="94.164" x="372.778" y="811.489" fill="#3d5c5c" fill-opacity="1" fill-rule="evenodd" stroke="#000" stroke-dasharray="none" stroke-dashoffset="0" stroke-linecap="butt" stroke-linejoin="miter" stroke-miterlimit="4" stroke-opacity="1" stroke-width="13.571" color="#000" display="inline" enable-background="accumulate" overflow="visible" ry="0" visibility="visible" style="marker:none"/><path id="rect2987" fill="#3d5c5c" fill-opacity="1" fill-rule="evenodd" stroke="#000" stroke-dasharray="none" stroke-dashoffset="0" stroke-linecap="butt" stroke-linejoin="miter" stroke-miterlimit="4" stroke-opacity="1" stroke-width="13.571" d="m 84.730819,274.20974 c -33.754876,0 -60.886101,27.19181 -60.886101,60.94669 v 443.10541 c 0,33.75487 27.131225,60.94668 60.886101,60.94668 H 732.78914 c 33.75488,0 60.94669,-27.19181 60.94669,-60.94668 V 335.15643 c 0,-33.75488 -27.19181,-60.94669 -60.94669,-60.94669 z m -0.787582,60.76494 H 733.57672 V 772.93052 H 83.943237 Z" color="#000" display="inline" enable-background="accumulate" overflow="visible" visibility="visible" style="marker:none"/><rect id="rect3761" width="409.889" height="38.773" x="221.008" y="900.113" fill="#3d5c5c" fill-opacity="1" fill-rule="evenodd" stroke="#000" stroke-dasharray="none" stroke-dashoffset="0" stroke-linecap="butt" stroke-linejoin="miter" stroke-miterlimit="4" stroke-opacity="1" stroke-width="13.571" color="#000" display="inline" enable-background="accumulate" overflow="visible" visibility="visible" style="marker:none"/><rect id="rect3763" width="208.959" height="411.772" x="679.295" y="488.175" fill="#3d5c5c" fill-opacity="1" fill-rule="evenodd" stroke="#000" stroke-dasharray="none" stroke-dashoffset="0" stroke-linecap="butt" stroke-linejoin="miter" stroke-miterlimit="4" stroke-opacity="1" stroke-width="13" color="#000" display="inline" enable-background="accumulate" overflow="visible" ry="43.021" visibility="visible" style="marker:none"/><rect id="rect3765" width="149.835" height="332.539" x="708.857" y="527.792" fill="#fff" fill-opacity="1" fill-rule="evenodd" stroke="#000" stroke-dasharray="none" stroke-dashoffset="0" stroke-linecap="butt" stroke-linejoin="miter" stroke-miterlimit="4" stroke-opacity="1" stroke-width="7.439" color="#000" display="inline" enable-background="accumulate" overflow="visible" ry="0" visibility="visible" style="marker:none"/><g id="text3776-3" fill="#666" fill-opacity="1" stroke="none" font-family="Liberation Mono" font-size="193.866" font-stretch="normal" font-style="normal" font-variant="normal" font-weight="normal" letter-spacing="0" text-anchor="start" transform="translate(4e-6,-10e-6)" word-spacing="0" writing-mode="lr-tb" style="text-align:start;line-height:.99999998%;-inkscape-font-specification:Liberation Mono"><path id="path3762" fill="#666" d="m 245.45232,571.9496 0,-19.40555 94.18792,-39.5684 0,14.57783 -81.21933,34.64601 81.21933,34.74067 0,14.48317 -94.18792,-39.47373" font-family="Liberation Mono" style="line-height:.99999998%;-inkscape-font-specification:Liberation Mono"/><path id="path3764" fill="#666" d="m 361.50699,627.89438 77.71687,-142.37048 16.84969,0 -77.33822,142.37048 -17.22834,0" font-family="Liberation Mono" style="line-height:.99999998%;-inkscape-font-specification:Liberation Mono"/><path id="path3766" fill="#666" d="m 477.9403,611.42333 0,-14.48317 81.21933,-34.74067 -81.21933,-34.64601 0,-14.57783 94.18792,39.5684 0,19.40555 -94.18792,39.47373" font-family="Liberation Mono" style="line-height:.99999998%;-inkscape-font-specification:Liberation Mono"/></g></g></svg>